<?xml version="1.0" encoding="UTF-8"?>
<svg xmlns="http://www.w3.org/2000/svg" xmlns:xlink="http://www.w3.org/1999/xlink" width="20pt" height="20pt" viewBox="0 0 20 20" version="1.1">
<g id="surface1">
<path style=" stroke:none;fill-rule:nonzero;fill:rgb(92.156863%,25.882353%,24.705882%);fill-opacity:1;" d="M 0.949219 6.875 C 0.953125 4.6875 2.871094 3.125 5.011719 3.125 C 6.648438 3.125 8.125 4.113281 8.75 5.625 L 7.824219 7.5 L 10.3125 9.375 L 7.1875 11.5625 L 10 13.75 L 8.761719 16.875 C 8.761719 16.875 0.9375 13.4375 0.949219 6.875 Z M 0.949219 6.875 "/>
<path style=" stroke:none;fill-rule:nonzero;fill:rgb(92.156863%,25.882353%,24.705882%);fill-opacity:1;" d="M 11.242188 16.875 L 12.191406 13.4375 L 9.375 11.5625 L 12.503906 9.6875 L 10.3125 7.5 L 11.25 5.625 C 11.878906 4.113281 13.355469 3.125 14.996094 3.125 C 17.136719 3.125 19.058594 4.6875 19.0625 6.875 C 19.074219 13.75 11.242188 16.875 11.242188 16.875 Z M 11.242188 16.875 "/>
<path style=" stroke:none;fill-rule:nonzero;fill:rgb(78.039216%,19.215686%,18.039216%);fill-opacity:1;" d="M 5.886719 7.0625 C 5.78125 7.199219 5.585938 7.230469 5.449219 7.125 L 4.308594 6.273438 L 3.320312 6.46875 L 4.027344 7.652344 C 4.117188 7.800781 4.070312 7.992188 3.921875 8.082031 C 3.773438 8.167969 3.582031 8.121094 3.492188 7.972656 L 2.554688 6.410156 C 2.503906 6.328125 2.496094 6.226562 2.53125 6.132812 L 3.089844 4.742188 L 2.472656 3.972656 C 2.46875 3.964844 2.464844 3.957031 2.460938 3.953125 C 2.628906 3.828125 2.808594 3.714844 2.992188 3.617188 L 3.691406 4.492188 C 3.761719 4.582031 3.78125 4.699219 3.738281 4.804688 L 3.328125 5.832031 L 4.324219 5.632812 C 4.410156 5.613281 4.5 5.632812 4.574219 5.6875 L 5.824219 6.625 C 5.960938 6.730469 5.988281 6.925781 5.886719 7.0625 Z M 5.886719 7.0625 "/>
<path style=" stroke:none;fill-rule:nonzero;fill:rgb(78.039216%,19.215686%,18.039216%);fill-opacity:1;" d="M 18.195312 10.671875 C 18.109375 10.859375 18.011719 11.042969 17.910156 11.222656 C 17.90625 11.222656 17.898438 11.21875 17.894531 11.214844 L 15.800781 10.285156 C 15.722656 10.25 15.660156 10.1875 15.632812 10.105469 C 15.605469 10.023438 15.609375 9.9375 15.648438 9.859375 L 16.445312 8.265625 L 14.851562 7.46875 C 14.695312 7.390625 14.632812 7.203125 14.710938 7.046875 C 14.785156 6.894531 14.976562 6.832031 15.128906 6.90625 L 17.003906 7.84375 C 17.160156 7.921875 17.222656 8.109375 17.144531 8.265625 L 16.351562 9.847656 L 18.148438 10.644531 C 18.164062 10.652344 18.183594 10.660156 18.195312 10.671875 Z M 18.195312 10.671875 "/>
</g>
</svg>
